<?xml version="1.0" encoding="UTF-8"?>
<!-- Generator: Adobe Illustrator 25.1.0, SVG Export Plug-In . SVG Version: 6.00 Build 0)  -->
<svg version="1.1" id="Layer_1" xmlns="http://www.w3.org/2000/svg" xmlns:xlink="http://www.w3.org/1999/xlink" x="0px" y="0px" viewBox="0 0 71.8 64.2" style="enable-background:new 0 0 71.8 64.2;" xml:space="preserve">
<style type="text/css">
	.st0{fill:#D77A27;}
</style>
<g>
	<g>
		<g>
			<path class="st0" d="M71.8,38.8v19.5c0,3.3-2.6,5.9-5.9,5.9H46.4c-3.3,0-5.9-2.6-5.9-5.9V19c0-1.8,0.2-7.6,4.9-12.6     c4-4.3,9.9-6.4,17.4-6.4c4.4,0,8,3.6,8,8c0,4.4-3.6,8-8,8c-2.8,0-4.9,0.5-5.8,1.4c-0.4,0.4-0.6,1-0.6,1l0,0.4v14h9.3     C69.1,32.9,71.8,35.6,71.8,38.8z"/>
		</g>
	</g>
	<g>
		<g>
			<path class="st0" d="M31.3,38.8v19.5c0,3.3-2.6,5.9-5.9,5.9H5.9c-3.3,0-5.9-2.6-5.9-5.9V19c0-1.8,0.2-7.6,4.9-12.6     C9,2.2,14.8,0,22.4,0c4.4,0,8,3.6,8,8c0,4.4-3.6,8-8,8c-2.8,0-4.9,0.5-5.8,1.4c-0.4,0.4-0.6,1-0.6,1l0,0.4v14h9.3     C28.6,32.9,31.3,35.6,31.3,38.8z"/>
		</g>
	</g>
</g>
<g>
</g>
<g>
</g>
<g>
</g>
<g>
</g>
<g>
</g>
<g>
</g>
</svg>