<?xml version="1.0" encoding="utf-8"?>
<!-- Generator: Adobe Illustrator 24.1.0, SVG Export Plug-In . SVG Version: 6.00 Build 0)  -->
<svg version="1.1" id="Layer_1" xmlns="http://www.w3.org/2000/svg" xmlns:xlink="http://www.w3.org/1999/xlink" x="0px" y="0px"
	 viewBox="0 0 607.24 435.05" style="enable-background:new 0 0 607.24 435.05;" xml:space="preserve">
<style type="text/css">
	.st0{fill:#1F3949;}
	.st1{fill:#28698D;}
	.st2{fill:#FDC844;}
	.st3{fill:#519DD4;}
	.st4{fill:#FBD451;}
</style>
<g>
	<path class="st0" d="M606.62,134.01c-8.23,2.61-16.67,4.71-24.67,7.9c-88.08,35.15-171.37,79.67-250.78,131.23
		c-31.5,20.45-60.68,44.5-90.74,67.14c-3.59,2.71-6.14,2.89-9.53,0.33c-20.53-15.5-41.4-30.57-61.6-46.49
		c-15.36-12.1-29.89-25.26-44.8-37.93c-0.4-0.34-0.91-0.57-1.37-0.85c-0.21,0.22-0.42,0.44-0.64,0.65
		c37.55,59.54,75.09,119.09,112.92,179.06c1.75-2.07,2.9-3.46,4.08-4.83c21.88-25.49,42.91-51.77,65.82-76.29
		c38.93-41.66,83.04-77.56,129.34-110.72c17.54-12.56,35.46-24.61,53.33-36.7c12.51-8.47,25.03-16.96,37.93-24.81
		c17.31-10.53,35.03-20.4,52.52-30.65c9.44-5.54,18.76-11.29,28.13-16.94c0.17-0.14,0.34-0.28,0.51-0.42
		c0.06,0.12,0.12,0.24,0.17,0.36C607.03,134.03,606.83,134.02,606.62,134.01z M484.56,154.82c6.27-2.97,4.47-7.76,3.76-11.39
		c-5.73-29.04-11.03-58.19-18.05-86.92c-4.16-17.04-11.11-33.41-16.96-50.02C451.66,1.82,448.44-0.01,443,0
		C332.36,0.2,221.73,0.16,111.09,0.17c-1.9,0-3.8,0-6.77,0c1.51,2.07,2.2,3.13,3,4.1c28.74,35.18,52.33,73.45,69.45,115.62
		c22.52,55.47,31.18,113.65,33.79,172.99c0.18,4.11,1.21,7,4.72,9.05c1.14,0.66,2.1,1.62,3.16,2.43c5.9,4.49,11.8,8.98,18.64,14.19
		c0.57-8.25,1.31-15.29,1.51-22.35c1.04-35.52-1.42-70.81-6.98-105.9c-4.75-30-12.08-59.32-22.58-87.85
		c-4.48-12.18-8.43-24.56-12.65-36.84c-0.96-2.79-1.25-5.33,2.3-6.43c13.21-4.1,22.06-13.13,28.73-24.86
		c0.9-1.59,3.64-3.02,5.54-3.03c57.3-0.46,114.6-0.7,171.9-1.09c4.45-0.03,7.66,1.54,10.19,5.06c9.11,12.67,20.83,21.93,35.78,26.71
		c6.19,1.98,9.65,6.01,11.36,12.1c4.75,16.99,9.72,33.91,14.47,50.9C479.37,134.69,481.83,144.5,484.56,154.82z M189.16,286.33
		c0.53-0.09,1.06-0.18,1.59-0.27c0-1.57,0.15-3.15-0.02-4.7c-1.8-16-2.83-32.14-5.66-47.96c-5.66-31.73-15.9-62.17-28.35-91.88
		c-14.59-34.79-32.36-67.89-52.55-99.72c-1.71-2.7-3.66-3.86-6.89-3.78c-9.49,0.23-18.99,0.03-28.48,0.26
		c-7.07,0.17-14.14,0.74-22.37,1.19C111.9,112.05,162.4,192.35,189.16,286.33z M162.75,271.74c-1.59-15.31-6.32-29.47-12.47-43.14
		c-21.45-47.64-52.9-88.36-88.1-126.42c-1.23-1.33-3.75-2.14-5.64-2.09c-12.48,0.3-24.95,0.88-37.43,1.43
		c-6.06,0.27-12.12,0.67-19.11,1.07c1.84,1.55,2.91,2.51,4.05,3.38c31.91,24.4,62.62,50.19,90.88,78.78
		c25.36,25.66,48.8,52.83,66.09,84.79C161.45,270.34,162.17,271,162.75,271.74z"/>
	<path class="st1" d="M484.56,154.82c-2.73-10.33-5.19-20.13-7.91-29.86c-4.75-16.99-9.72-33.91-14.47-50.9
		c-1.71-6.1-5.16-10.12-11.36-12.1c-14.95-4.78-26.67-14.04-35.78-26.71c-2.54-3.53-5.75-5.09-10.19-5.06
		c-57.3,0.39-114.6,0.63-171.9,1.09c-1.9,0.02-4.63,1.44-5.54,3.03c-6.68,11.73-15.52,20.76-28.73,24.86
		c-3.55,1.1-3.26,3.64-2.3,6.43c4.21,12.28,8.16,24.66,12.65,36.84c10.5,28.53,17.83,57.86,22.58,87.85
		c5.56,35.09,8.02,70.38,6.98,105.9c-0.21,7.06-0.94,14.1-1.51,22.35c-6.84-5.21-12.74-9.7-18.64-14.19
		c-1.06-0.81-2.02-1.77-3.16-2.43c-3.51-2.05-4.54-4.93-4.72-9.05c-2.6-59.34-11.27-117.52-33.79-172.99
		c-17.12-42.17-40.71-80.44-69.45-115.62c-0.79-0.97-1.49-2.03-3-4.1c2.97,0,4.87,0,6.77,0C221.73,0.16,332.36,0.2,443,0
		c5.44-0.01,8.66,1.82,10.31,6.49c5.85,16.61,12.8,32.98,16.96,50.02c7.01,28.73,12.32,57.89,18.05,86.92
		C489.03,147.06,490.82,151.85,484.56,154.82z"/>
	<path class="st2" d="M606.57,134.09c-9.38,5.66-18.7,11.41-28.14,16.95c-17.48,10.25-35.2,20.12-52.52,30.65
		c-12.9,7.85-25.41,16.35-37.93,24.81c-17.87,12.09-35.79,24.13-53.33,36.7c-46.3,33.16-90.41,69.06-129.34,110.72
		c-22.91,24.52-43.94,50.8-65.82,76.29c-1.18,1.37-2.34,2.76-4.08,4.83c-37.82-59.98-75.37-119.52-112.92-179.06
		c0.21-0.22,0.42-0.44,0.64-0.65c0.46,0.28,0.97,0.5,1.37,0.85c14.91,12.68,29.44,25.83,44.8,37.93
		c20.2,15.92,41.06,30.99,61.6,46.49c3.39,2.56,5.94,2.38,9.53-0.33c30.06-22.64,59.23-46.69,90.74-67.14
		c79.41-51.55,162.7-96.08,250.78-131.23c8-3.19,16.43-5.3,24.67-7.9L606.57,134.09z"/>
	<path class="st1" d="M189.16,286.33C162.4,192.35,111.9,112.05,46.43,39.46c8.24-0.45,15.3-1.02,22.37-1.19
		c9.49-0.23,18.99-0.03,28.48-0.26c3.23-0.08,5.18,1.08,6.89,3.78c20.19,31.84,37.96,64.93,52.55,99.72
		c12.45,29.71,22.69,60.14,28.35,91.88c2.82,15.82,3.86,31.96,5.66,47.96c0.17,1.55,0.02,3.13,0.02,4.7
		C190.22,286.15,189.69,286.24,189.16,286.33z"/>
	<path class="st3" d="M162.75,271.74c-0.58-0.73-1.3-1.4-1.74-2.21c-17.29-31.96-40.73-59.13-66.09-84.79
		c-28.26-28.6-58.97-54.38-90.88-78.78c-1.14-0.87-2.2-1.83-4.05-3.38c6.99-0.4,13.05-0.8,19.11-1.07
		c12.47-0.55,24.95-1.12,37.43-1.43c1.89-0.05,4.41,0.76,5.64,2.09c35.2,38.07,66.66,78.78,88.1,126.42
		C156.43,242.26,161.16,256.42,162.75,271.74z"/>
	<path class="st4" d="M606.62,134.01c0.21,0.01,0.41,0.02,0.62,0.04c-0.06-0.12-0.11-0.24-0.17-0.36c-0.17,0.14-0.34,0.28-0.51,0.42
		C606.57,134.09,606.62,134.01,606.62,134.01z"/>
</g>
</svg>
