<?xml version="1.0" encoding="utf-8"?>
<!-- Generator: Adobe Illustrator 25.2.3, SVG Export Plug-In . SVG Version: 6.00 Build 0)  -->
<svg version="1.1" id="Logo" xmlns="http://www.w3.org/2000/svg" xmlns:xlink="http://www.w3.org/1999/xlink" x="0px" y="0px"
	 viewBox="0 0 20.1 18.9" style="enable-background:new 0 0 20.1 18.9;" xml:space="preserve">
<style type="text/css">
	.st0{fill:#FFFFFF;}
</style>
<g>
	<path class="st0" d="M10.1,18.9L10.1,18.9C7.5,18.9,0,12.1,0,5.8C0,2.7,2.5,0,5.4,0C7.7,0,9.2,1.6,10,2.7C10.9,1.6,12.4,0,14.7,0
		c2.9,0,5.4,2.7,5.4,5.8C20.1,12.1,12.6,18.9,10.1,18.9L10.1,18.9L10.1,18.9z M5.4,1.5c-2.1,0-3.9,2-3.9,4.3c0,5.7,7,11.6,8.6,11.7
		c1.5-0.1,8.5-5.9,8.5-11.7c0-2.3-1.8-4.3-3.9-4.3c-2.5,0-3.9,2.9-4,3C10.5,5,9.6,5,9.4,4.5C9.3,4.4,7.9,1.5,5.4,1.5L5.4,1.5z"/>
</g>
</svg>
