<?xml version="1.0" encoding="utf-8"?>
<!-- Generator: Adobe Illustrator 25.2.3, SVG Export Plug-In . SVG Version: 6.00 Build 0)  -->
<svg version="1.1" id="Logo" xmlns="http://www.w3.org/2000/svg" xmlns:xlink="http://www.w3.org/1999/xlink" x="0px" y="0px"
	 viewBox="0 0 19.8 19.7" style="enable-background:new 0 0 19.8 19.7;" xml:space="preserve">
<style type="text/css">
	.st0{fill:#FFFFFF;}
</style>
<g>
	<path class="st0" d="M11.9,0L7.8,0h0C3.4,0,0,3.4,0,7.8c0,4.1,3.2,7.2,7.5,7.4V19c0,0.1,0,0.3,0.1,0.4c0.1,0.2,0.4,0.3,0.6,0.3
		c0.1,0,0.3,0,0.4-0.1c0.3-0.2,6.5-4.1,8.1-5.5c1.9-1.6,3-4,3-6.3v0C19.7,3.4,16.3,0,11.9,0L11.9,0z M15.7,13
		c-1.1,1-4.9,3.4-6.8,4.6v-3.2c0-0.4-0.3-0.8-0.8-0.8H7.8c-3.7,0-6.3-2.5-6.3-5.9c0-3.5,2.8-6.3,6.3-6.3l4.1,0h0
		c3.5,0,6.3,2.8,6.3,6.3C18.2,9.7,17.3,11.6,15.7,13L15.7,13z"/>
</g>
</svg>
