<?xml version="1.0" encoding="utf-8"?>
<!-- Generator: Adobe Illustrator 25.2.3, SVG Export Plug-In . SVG Version: 6.00 Build 0)  -->
<svg version="1.1" id="Logo" xmlns="http://www.w3.org/2000/svg" xmlns:xlink="http://www.w3.org/1999/xlink" x="0px" y="0px"
	 viewBox="0 0 24.2 16.8" style="enable-background:new 0 0 24.2 16.8;" xml:space="preserve">
<style type="text/css">
	.st0{fill:#1D9BF0;}
</style>
<g>
	<path class="st0" d="M23.9,11.9c-0.3-0.3-0.8-0.3-1.1,0l-2.2,2.2V3.9c0-2.1-1.7-3.8-3.8-3.8H11c-0.4,0-0.8,0.3-0.8,0.8
		s0.3,0.7,0.8,0.7h5.8c1.2,0,2.2,1,2.2,2.2V14l-2.2-2.2c-0.3-0.3-0.8-0.3-1.1,0s-0.3,0.8,0,1.1l3.5,3.5c0.1,0.1,0.3,0.2,0.5,0.2
		s0.4-0.1,0.5-0.2l3.5-3.5C24.2,12.6,24.2,12.2,23.9,11.9z M13.2,15.2H7.4c-1.2,0-2.2-1-2.2-2.2V2.7l2.2,2.2C7.5,5,7.7,5.1,7.9,5.1
		S8.3,5,8.4,4.9c0.3-0.3,0.3-0.8,0-1.1L4.9,0.3C4.6,0,4.1,0,3.8,0.3L0.3,3.8C0,4.1,0,4.6,0.3,4.9s0.8,0.3,1.1,0l2.2-2.2v10.2
		c0,2.1,1.7,3.8,3.8,3.8h5.9c0.4,0,0.8-0.3,0.8-0.8S13.6,15.2,13.2,15.2L13.2,15.2z"/>
</g>
</svg>
